<svg width="128" height="128" viewBox="0 0 128 128" fill="none" xmlns="http://www.w3.org/2000/svg">
<path d="M106.667 42.6667H21.3333C18.3878 42.6667 16 45.0545 16 48V58.6667C16 61.6122 18.3878 64 21.3333 64H106.667C109.612 64 112 61.6122 112 58.6667V48C112 45.0545 109.612 42.6667 106.667 42.6667Z" stroke="#BC4749" stroke-width="2" stroke-linecap="round" stroke-linejoin="round"/>
<path d="M64 42.6667V112" stroke="#BC4749" stroke-width="2" stroke-linecap="round" stroke-linejoin="round"/>
<path d="M101.333 64V101.333C101.333 104.162 100.21 106.875 98.2092 108.876C96.2088 110.876 93.4957 112 90.6667 112H37.3334C34.5044 112 31.7913 110.876 29.7909 108.876C27.7906 106.875 26.6667 104.162 26.6667 101.333V64" stroke="#BC4749" stroke-width="2" stroke-linecap="round" stroke-linejoin="round"/>
<path d="M40.0001 42.6667C36.4639 42.6667 33.0725 41.2619 30.572 38.7614C28.0715 36.2609 26.6667 32.8696 26.6667 29.3333C26.6667 25.7971 28.0715 22.4057 30.572 19.9052C33.0725 17.4048 36.4639 16 40.0001 16C45.1451 15.9104 50.1869 18.4067 54.468 23.1635C58.7491 27.9203 62.0709 34.7168 64.0001 42.6667C65.9293 34.7168 69.251 27.9203 73.5322 23.1635C77.8133 18.4067 82.8551 15.9104 88.0001 16C91.5363 16 94.9277 17.4048 97.4282 19.9052C99.9287 22.4057 101.333 25.7971 101.333 29.3333C101.333 32.8696 99.9287 36.2609 97.4282 38.7614C94.9277 41.2619 91.5363 42.6667 88.0001 42.6667" stroke="#BC4749" stroke-width="2" stroke-linecap="round" stroke-linejoin="round"/>
</svg>
